<svg width="22" height="22" viewBox="0 0 22 22" fill="none" xmlns="http://www.w3.org/2000/svg">
<path d="M20.2167 21.4708L12.5458 13.8C11.9625 14.3056 11.2819 14.6993 10.5042 14.9812C9.72639 15.2632 8.9 15.4042 8.025 15.4042C5.925 15.4042 4.14583 14.675 2.6875 13.2167C1.22917 11.7583 0.5 9.99861 0.5 7.9375C0.5 5.87639 1.22917 4.11667 2.6875 2.65833C4.14583 1.2 5.91528 0.470833 7.99583 0.470833C10.0569 0.470833 11.8118 1.2 13.2604 2.65833C14.709 4.11667 15.4333 5.87639 15.4333 7.9375C15.4333 8.77361 15.2972 9.58055 15.025 10.3583C14.7528 11.1361 14.3444 11.8653 13.8 12.5458L21.5 20.1875L20.2167 21.4708ZM7.99583 13.6542C9.57083 13.6542 10.9125 13.0951 12.0208 11.9771C13.1292 10.859 13.6833 9.5125 13.6833 7.9375C13.6833 6.3625 13.1292 5.01597 12.0208 3.89792C10.9125 2.77986 9.57083 2.22083 7.99583 2.22083C6.40139 2.22083 5.04514 2.77986 3.92708 3.89792C2.80903 5.01597 2.25 6.3625 2.25 7.9375C2.25 9.5125 2.80903 10.859 3.92708 11.9771C5.04514 13.0951 6.40139 13.6542 7.99583 13.6542Z" fill="#4F46E5"/>
</svg>
